<mxfile host="Electron" modified="2024-03-26T07:34:46.040Z" agent="Mozilla/5.0 (Windows NT 10.0; Win64; x64) AppleWebKit/537.36 (KHTML, like Gecko) draw.io/21.1.2 Chrome/106.0.5249.199 Electron/21.4.3 Safari/537.36" etag="3tRuUgBLeKlYltHTT_MW" version="21.1.2" type="device">
  <diagram name="Seite-1" id="z_2dot5QInt8ppIREI61">
    <mxGraphModel dx="1036" dy="614" grid="1" gridSize="10" guides="1" tooltips="1" connect="1" arrows="1" fold="1" page="1" pageScale="1" pageWidth="827" pageHeight="1169" math="0" shadow="0">
      <root>
        <mxCell id="0" />
        <mxCell id="1" parent="0" />
        <mxCell id="L5CR_Bll_L-VFsYANITX-19" value="" style="rounded=1;whiteSpace=wrap;html=1;dashed=1;dashPattern=8 8;" vertex="1" parent="1">
          <mxGeometry x="120" y="160" width="240" height="200" as="geometry" />
        </mxCell>
        <mxCell id="L5CR_Bll_L-VFsYANITX-22" value="&lt;font style=&quot;font-size: 20px;&quot;&gt;User Service&lt;/font&gt;" style="text;html=1;strokeColor=none;fillColor=none;align=center;verticalAlign=middle;whiteSpace=wrap;rounded=0;" vertex="1" parent="1">
          <mxGeometry x="175" y="170" width="130" height="30" as="geometry" />
        </mxCell>
        <mxCell id="L5CR_Bll_L-VFsYANITX-23" value="Login&lt;br style=&quot;font-size: 16px;&quot;&gt;Logout&lt;br style=&quot;font-size: 16px;&quot;&gt;Register" style="text;html=1;strokeColor=none;fillColor=none;align=center;verticalAlign=middle;whiteSpace=wrap;rounded=0;fontSize=16;" vertex="1" parent="1">
          <mxGeometry x="210" y="230" width="60" height="30" as="geometry" />
        </mxCell>
        <mxCell id="L5CR_Bll_L-VFsYANITX-24" value="" style="rounded=1;whiteSpace=wrap;html=1;dashed=1;dashPattern=8 8;" vertex="1" parent="1">
          <mxGeometry x="440" y="319" width="240" height="200" as="geometry" />
        </mxCell>
        <mxCell id="L5CR_Bll_L-VFsYANITX-25" value="&lt;font style=&quot;font-size: 20px;&quot;&gt;Category Service&lt;/font&gt;" style="text;html=1;strokeColor=none;fillColor=none;align=center;verticalAlign=middle;whiteSpace=wrap;rounded=0;" vertex="1" parent="1">
          <mxGeometry x="477.5" y="329" width="165" height="30" as="geometry" />
        </mxCell>
        <mxCell id="L5CR_Bll_L-VFsYANITX-26" value="Create Category&amp;nbsp;&lt;br&gt;Delete Category&lt;br&gt;" style="text;html=1;strokeColor=none;fillColor=none;align=center;verticalAlign=middle;whiteSpace=wrap;rounded=0;fontSize=16;" vertex="1" parent="1">
          <mxGeometry x="477.5" y="389" width="170" height="30" as="geometry" />
        </mxCell>
        <mxCell id="L5CR_Bll_L-VFsYANITX-27" value="" style="rounded=1;whiteSpace=wrap;html=1;dashed=1;dashPattern=8 8;" vertex="1" parent="1">
          <mxGeometry x="440" y="10" width="240" height="200" as="geometry" />
        </mxCell>
        <mxCell id="L5CR_Bll_L-VFsYANITX-28" value="&lt;font style=&quot;font-size: 20px;&quot;&gt;Product Service&lt;/font&gt;" style="text;html=1;strokeColor=none;fillColor=none;align=center;verticalAlign=middle;whiteSpace=wrap;rounded=0;" vertex="1" parent="1">
          <mxGeometry x="487.5" y="20" width="145" height="30" as="geometry" />
        </mxCell>
        <mxCell id="L5CR_Bll_L-VFsYANITX-29" value="Create Product&lt;br&gt;Delete Product" style="text;html=1;strokeColor=none;fillColor=none;align=center;verticalAlign=middle;whiteSpace=wrap;rounded=0;fontSize=16;" vertex="1" parent="1">
          <mxGeometry x="500" y="80" width="120" height="30" as="geometry" />
        </mxCell>
        <mxCell id="L5CR_Bll_L-VFsYANITX-34" value="&lt;font style=&quot;font-size: 16px;&quot;&gt;Auth&lt;/font&gt;" style="text;html=1;strokeColor=none;fillColor=none;align=center;verticalAlign=middle;whiteSpace=wrap;rounded=0;" vertex="1" parent="1">
          <mxGeometry x="370" y="299" width="60" height="30" as="geometry" />
        </mxCell>
        <mxCell id="L5CR_Bll_L-VFsYANITX-35" value="" style="shape=flexArrow;endArrow=classic;startArrow=classic;html=1;rounded=0;" edge="1" parent="1">
          <mxGeometry width="100" height="100" relative="1" as="geometry">
            <mxPoint x="360" y="343.5" as="sourcePoint" />
            <mxPoint x="440" y="344.5" as="targetPoint" />
          </mxGeometry>
        </mxCell>
        <mxCell id="L5CR_Bll_L-VFsYANITX-36" value="" style="shape=flexArrow;endArrow=classic;startArrow=classic;html=1;rounded=0;entryX=0.5;entryY=1;entryDx=0;entryDy=0;" edge="1" parent="1" target="L5CR_Bll_L-VFsYANITX-27">
          <mxGeometry width="100" height="100" relative="1" as="geometry">
            <mxPoint x="559.5" y="319" as="sourcePoint" />
            <mxPoint x="559.5" y="239" as="targetPoint" />
          </mxGeometry>
        </mxCell>
        <mxCell id="L5CR_Bll_L-VFsYANITX-37" value="Category ID" style="text;html=1;strokeColor=none;fillColor=none;align=center;verticalAlign=middle;whiteSpace=wrap;rounded=0;fontSize=16;" vertex="1" parent="1">
          <mxGeometry x="560" y="245" width="110" height="30" as="geometry" />
        </mxCell>
        <mxCell id="L5CR_Bll_L-VFsYANITX-40" value="&lt;font style=&quot;font-size: 16px;&quot;&gt;Auth&lt;/font&gt;" style="text;html=1;strokeColor=none;fillColor=none;align=center;verticalAlign=middle;whiteSpace=wrap;rounded=0;" vertex="1" parent="1">
          <mxGeometry x="370" y="140" width="60" height="30" as="geometry" />
        </mxCell>
        <mxCell id="L5CR_Bll_L-VFsYANITX-41" value="" style="shape=flexArrow;endArrow=classic;startArrow=classic;html=1;rounded=0;" edge="1" parent="1">
          <mxGeometry width="100" height="100" relative="1" as="geometry">
            <mxPoint x="360" y="184.5" as="sourcePoint" />
            <mxPoint x="440" y="185.5" as="targetPoint" />
          </mxGeometry>
        </mxCell>
      </root>
    </mxGraphModel>
  </diagram>
</mxfile>
